<svg xmlns="http://www.w3.org/2000/svg" xmlns:xlink="http://www.w3.org/1999/xlink" width="1080" zoomAndPan="magnify" viewBox="0 0 810 809.999993" height="1080" preserveAspectRatio="xMidYMid meet" version="1.0"><defs><g/><clipPath id="612b58bb7b"><path d="M 480.863281 402.597656 L 579.957031 402.597656 L 579.957031 528 L 480.863281 528 Z M 480.863281 402.597656 " clip-rule="nonzero"/></clipPath></defs><rect x="-81" width="972" fill="#ffffff" y="-80.999999" height="971.999992" fill-opacity="1"/><rect x="-81" width="972" fill="#12506c" y="-80.999999" height="971.999992" fill-opacity="1"/><g fill="#ffffff" fill-opacity="1"><g transform="translate(73.434552, 384.393417)"><g><path d="M 56.25 4.796875 C 55.1875 4.796875 54.160156 3.84375 53.171875 1.9375 C 52.179688 0.03125 51 -2.441406 49.625 -5.484375 C 48.40625 -8.234375 47.03125 -11.398438 45.5 -14.984375 C 43.976562 -18.566406 42.609375 -21.804688 41.390625 -24.703125 C 37.429688 -33.546875 33.390625 -42.160156 29.265625 -50.546875 C 25.148438 -58.929688 21.035156 -67.539062 16.921875 -76.375 C 15.398438 -79.882812 13.800781 -82.820312 12.125 -85.1875 C 10.445312 -87.550781 8.160156 -89.265625 5.265625 -90.328125 C 3.734375 -90.941406 2.660156 -91.585938 2.046875 -92.265625 C 1.441406 -92.953125 1.140625 -93.984375 1.140625 -95.359375 C 1.140625 -96.578125 1.828125 -97.335938 3.203125 -97.640625 C 4.578125 -97.953125 5.796875 -98.109375 6.859375 -98.109375 C 10.671875 -98.109375 13.679688 -97.992188 15.890625 -97.765625 C 18.097656 -97.535156 20.269531 -97.304688 22.40625 -97.078125 C 24.539062 -96.847656 27.285156 -96.734375 30.640625 -96.734375 C 33.992188 -96.734375 37.039062 -96.847656 39.78125 -97.078125 C 42.53125 -97.304688 45.390625 -97.535156 48.359375 -97.765625 C 51.335938 -97.992188 54.65625 -98.109375 58.3125 -98.109375 C 59.382812 -98.109375 60.566406 -97.878906 61.859375 -97.421875 C 63.148438 -96.960938 63.796875 -96.125 63.796875 -94.90625 C 63.796875 -93.53125 63.265625 -92.613281 62.203125 -92.15625 C 61.140625 -91.695312 59.992188 -91.164062 58.765625 -90.5625 C 57.085938 -89.945312 55.753906 -88.835938 54.765625 -87.234375 C 53.773438 -85.640625 53.28125 -83.472656 53.28125 -80.734375 C 53.28125 -79.359375 53.28125 -78.0625 53.28125 -76.84375 C 53.28125 -75.625 53.585938 -74.40625 54.203125 -73.1875 L 68.828125 -37.734375 C 68.984375 -37.734375 69.097656 -37.734375 69.171875 -37.734375 C 69.253906 -37.734375 69.367188 -37.734375 69.515625 -37.734375 L 82.328125 -72.03125 C 82.785156 -73.25 83.085938 -74.429688 83.234375 -75.578125 C 83.390625 -76.722656 83.46875 -77.828125 83.46875 -78.890625 C 83.46875 -81.484375 82.859375 -83.804688 81.640625 -85.859375 C 80.421875 -87.921875 78.515625 -89.410156 75.921875 -90.328125 C 74.703125 -90.785156 73.554688 -91.28125 72.484375 -91.8125 C 71.421875 -92.351562 70.890625 -93.304688 70.890625 -94.671875 C 70.890625 -95.890625 71.535156 -96.726562 72.828125 -97.1875 C 74.128906 -97.644531 75.3125 -97.875 76.375 -97.875 C 80.957031 -97.726562 84.195312 -97.613281 86.09375 -97.53125 C 88 -97.457031 89.945312 -97.421875 91.9375 -97.421875 C 93.757812 -97.421875 95.8125 -97.457031 98.09375 -97.53125 C 100.382812 -97.613281 103.742188 -97.726562 108.171875 -97.875 C 109.234375 -97.875 110.453125 -97.722656 111.828125 -97.421875 C 113.203125 -97.117188 113.890625 -96.359375 113.890625 -95.140625 C 113.890625 -92.847656 112.515625 -91.171875 109.765625 -90.109375 C 106.867188 -89.035156 104.273438 -87.316406 101.984375 -84.953125 C 99.703125 -82.585938 97.875 -79.65625 96.5 -76.15625 L 78.671875 -30.875 C 78.210938 -29.65625 77.675781 -28.394531 77.0625 -27.09375 C 76.457031 -25.800781 75.847656 -24.503906 75.234375 -23.203125 C 74.628906 -21.910156 74.019531 -20.613281 73.40625 -19.3125 C 72.800781 -18.019531 72.191406 -16.765625 71.578125 -15.546875 C 70.972656 -14.179688 70.097656 -12.203125 68.953125 -9.609375 C 67.804688 -7.015625 66.660156 -4.382812 65.515625 -1.71875 C 64.367188 0.945312 63.34375 3.117188 62.4375 4.796875 Z M 56.25 4.796875 "/></g></g></g><g fill="#ffffff" fill-opacity="1"><g transform="translate(191.890574, 384.393417)"><g><path d="M 48.25 3.203125 C 40.019531 3.203125 32.625 0.992188 26.0625 -3.421875 C 19.507812 -7.847656 14.328125 -13.832031 10.515625 -21.375 C 6.703125 -28.925781 4.796875 -37.425781 4.796875 -46.875 C 4.796875 -56.632812 7.082031 -65.515625 11.65625 -73.515625 C 16.238281 -81.523438 22.414062 -87.890625 30.1875 -92.609375 C 37.957031 -97.335938 46.570312 -99.703125 56.03125 -99.703125 C 62.582031 -99.703125 68.523438 -98.253906 73.859375 -95.359375 C 79.203125 -92.460938 83.472656 -88.613281 86.671875 -83.8125 C 89.867188 -79.007812 91.46875 -73.5625 91.46875 -67.46875 C 91.46875 -61.519531 89.109375 -58.546875 84.390625 -58.546875 L 39.109375 -58.546875 C 36.972656 -58.546875 35.410156 -57.9375 34.421875 -56.71875 C 33.429688 -55.5 32.9375 -53.441406 32.9375 -50.546875 C 32.9375 -45.054688 34.15625 -40.0625 36.59375 -35.5625 C 39.03125 -31.0625 42.382812 -27.515625 46.65625 -24.921875 C 50.925781 -22.335938 55.878906 -21.046875 61.515625 -21.046875 C 65.941406 -21.046875 70.019531 -21.882812 73.75 -23.5625 C 77.488281 -25.238281 81.265625 -27.523438 85.078125 -30.421875 C 85.535156 -30.722656 86.066406 -31.0625 86.671875 -31.4375 C 87.285156 -31.820312 87.816406 -32.015625 88.265625 -32.015625 C 89.941406 -32.015625 90.78125 -31.023438 90.78125 -29.046875 C 90.78125 -27.671875 90.328125 -25.613281 89.421875 -22.875 C 88.046875 -18.75 85.523438 -14.664062 81.859375 -10.625 C 78.203125 -6.59375 73.515625 -3.28125 67.796875 -0.6875 C 62.085938 1.90625 55.570312 3.203125 48.25 3.203125 Z M 39.109375 -68.609375 L 51.21875 -68.609375 C 55.644531 -68.609375 58.582031 -68.679688 60.03125 -68.828125 C 61.476562 -68.984375 62.8125 -69.289062 64.03125 -69.75 C 64.789062 -70.050781 65.398438 -70.890625 65.859375 -72.265625 C 66.316406 -73.640625 66.546875 -75.085938 66.546875 -76.609375 C 66.546875 -80.578125 65.285156 -83.816406 62.765625 -86.328125 C 60.253906 -88.847656 57.019531 -90.109375 53.0625 -90.109375 C 50.007812 -90.109375 47.148438 -89.226562 44.484375 -87.46875 C 41.816406 -85.71875 39.644531 -83.46875 37.96875 -80.71875 C 36.289062 -77.976562 35.523438 -75.082031 35.671875 -72.03125 C 35.671875 -69.75 36.816406 -68.609375 39.109375 -68.609375 Z M 39.109375 -68.609375 "/></g></g></g><g fill="#ffffff" fill-opacity="1"><g transform="translate(297.769225, 384.393417)"><g><path d="M 9.140625 0.6875 C 8.078125 0.6875 7.050781 0.382812 6.0625 -0.21875 C 5.070312 -0.832031 4.578125 -1.675781 4.578125 -2.75 C 4.578125 -3.96875 5.070312 -4.957031 6.0625 -5.71875 C 7.050781 -6.476562 8.304688 -7.085938 9.828125 -7.546875 C 13.335938 -8.609375 15.625 -9.710938 16.6875 -10.859375 C 17.757812 -12.003906 18.296875 -13.796875 18.296875 -16.234375 L 18.296875 -69.515625 C 18.296875 -72.566406 17.914062 -75.003906 17.15625 -76.828125 C 16.394531 -78.660156 14.71875 -79.960938 12.125 -80.734375 C 11.363281 -81.035156 10.640625 -81.453125 9.953125 -81.984375 C 9.265625 -82.515625 8.921875 -83.546875 8.921875 -85.078125 C 8.921875 -87.359375 9.910156 -88.726562 11.890625 -89.1875 C 16.921875 -90.40625 22.523438 -91.96875 28.703125 -93.875 C 34.878906 -95.78125 40.253906 -97.800781 44.828125 -99.9375 C 45.585938 -100.394531 46.578125 -100.925781 47.796875 -101.53125 C 49.015625 -102.144531 49.929688 -102.453125 50.546875 -102.453125 C 52.066406 -102.453125 52.828125 -101.535156 52.828125 -99.703125 C 52.828125 -98.941406 52.785156 -97.34375 52.703125 -94.90625 C 52.628906 -92.46875 52.515625 -89.988281 52.359375 -87.46875 C 52.210938 -84.957031 52.140625 -82.9375 52.140625 -81.40625 C 52.140625 -79.882812 52.445312 -79.125 53.0625 -79.125 C 55.34375 -82.320312 58.046875 -85.519531 61.171875 -88.71875 C 64.296875 -91.925781 67.722656 -94.597656 71.453125 -96.734375 C 75.191406 -98.867188 78.96875 -99.9375 82.78125 -99.9375 C 88.425781 -99.9375 92.390625 -98.867188 94.671875 -96.734375 C 96.960938 -94.597656 98.109375 -91.851562 98.109375 -88.5 C 98.109375 -86.0625 97.421875 -83.351562 96.046875 -80.375 C 94.671875 -77.40625 92.914062 -74.851562 90.78125 -72.71875 C 88.65625 -70.582031 86.367188 -69.515625 83.921875 -69.515625 C 82.398438 -69.515625 80.835938 -69.894531 79.234375 -70.65625 C 77.640625 -71.425781 76.003906 -72.191406 74.328125 -72.953125 C 72.796875 -73.710938 71.269531 -74.4375 69.75 -75.125 C 68.226562 -75.8125 66.859375 -76.15625 65.640625 -76.15625 C 61.671875 -76.15625 58.3125 -74.664062 55.5625 -71.6875 C 52.820312 -68.71875 51.453125 -62.8125 51.453125 -53.96875 L 51.453125 -18.75 C 51.453125 -15.394531 52.363281 -12.953125 54.1875 -11.421875 C 56.019531 -9.898438 59.070312 -8.53125 63.34375 -7.3125 C 65.019531 -6.851562 66.273438 -6.28125 67.109375 -5.59375 C 67.953125 -4.914062 68.375 -3.96875 68.375 -2.75 C 68.375 -0.457031 67.15625 0.6875 64.71875 0.6875 C 60.144531 0.6875 55.113281 0.492188 49.625 0.109375 C 44.132812 -0.265625 39.410156 -0.453125 35.453125 -0.453125 C 32.859375 -0.453125 30.113281 -0.375 27.21875 -0.21875 C 24.320312 -0.0703125 21.347656 0.113281 18.296875 0.34375 C 15.242188 0.570312 12.191406 0.6875 9.140625 0.6875 Z M 9.140625 0.6875 "/></g></g></g><g fill="#ffffff" fill-opacity="1"><g transform="translate(405.70599, 384.393417)"><g><path d="M 63.796875 3.203125 C 59.078125 3.203125 54.8125 2.820312 51 2.0625 C 47.1875 1.300781 43.753906 0.460938 40.703125 -0.453125 C 38.566406 -1.066406 36.625 -1.5625 34.875 -1.9375 C 33.125 -2.320312 31.5625 -2.515625 30.1875 -2.515625 C 28.664062 -2.515625 27.140625 -2.25 25.609375 -1.71875 C 24.085938 -1.1875 22.71875 -0.460938 21.5 0.453125 C 19.96875 1.523438 18.75 2.0625 17.84375 2.0625 C 16.3125 2.0625 15.203125 1.753906 14.515625 1.140625 C 13.835938 0.535156 13.5 -0.148438 13.5 -0.921875 C 13.5 -2.285156 13.953125 -5.023438 14.859375 -9.140625 C 15.773438 -13.265625 16.160156 -18.601562 16.015625 -25.15625 L 14.859375 -124.859375 C 14.859375 -128.972656 14.398438 -132.59375 13.484375 -135.71875 C 12.578125 -138.851562 10.21875 -140.722656 6.40625 -141.328125 C 5.644531 -141.484375 4.992188 -141.863281 4.453125 -142.46875 C 3.921875 -143.082031 3.65625 -143.921875 3.65625 -144.984375 C 3.65625 -145.898438 3.882812 -146.660156 4.34375 -147.265625 C 4.800781 -147.878906 5.410156 -148.265625 6.171875 -148.421875 C 9.828125 -149.179688 13.976562 -150.285156 18.625 -151.734375 C 23.28125 -153.179688 27.816406 -154.742188 32.234375 -156.421875 C 36.660156 -158.097656 40.171875 -159.394531 42.765625 -160.3125 C 44.285156 -160.914062 45.425781 -161.21875 46.1875 -161.21875 C 47.257812 -161.21875 47.984375 -160.910156 48.359375 -160.296875 C 48.742188 -159.691406 48.9375 -159.007812 48.9375 -158.25 C 48.9375 -157.1875 48.742188 -155.394531 48.359375 -152.875 C 47.984375 -150.363281 47.796875 -148.039062 47.796875 -145.90625 L 47.5625 -96.5 C 47.5625 -94.675781 47.75 -93.191406 48.125 -92.046875 C 48.507812 -90.898438 49.007812 -90.328125 49.625 -90.328125 C 54.351562 -93.378906 59.15625 -95.703125 64.03125 -97.296875 C 68.90625 -98.898438 73.554688 -99.703125 77.984375 -99.703125 C 86.066406 -99.703125 93.304688 -97.601562 99.703125 -93.40625 C 106.109375 -89.21875 111.175781 -83.539062 114.90625 -76.375 C 118.644531 -69.21875 120.515625 -61.0625 120.515625 -51.90625 C 120.515625 -41.082031 118.113281 -31.515625 113.3125 -23.203125 C 108.507812 -14.898438 101.878906 -8.421875 93.421875 -3.765625 C 84.960938 0.878906 75.085938 3.203125 63.796875 3.203125 Z M 67.46875 -7.09375 C 71.28125 -7.09375 74.476562 -8.882812 77.0625 -12.46875 C 79.65625 -16.050781 81.675781 -20.773438 83.125 -26.640625 C 84.570312 -32.515625 85.296875 -38.878906 85.296875 -45.734375 C 85.296875 -51.835938 84.570312 -58.015625 83.125 -64.265625 C 81.675781 -70.515625 79.390625 -75.734375 76.265625 -79.921875 C 73.140625 -84.117188 69.0625 -86.21875 64.03125 -86.21875 C 62.050781 -86.21875 59.34375 -85.910156 55.90625 -85.296875 C 52.476562 -84.691406 49.695312 -83.625 47.5625 -82.09375 L 47.5625 -32.46875 C 47.5625 -27.59375 48.515625 -23.210938 50.421875 -19.328125 C 52.328125 -15.441406 54.804688 -12.429688 57.859375 -10.296875 C 60.910156 -8.160156 64.113281 -7.09375 67.46875 -7.09375 Z M 67.46875 -7.09375 "/></g></g></g><g fill="#ffffff" fill-opacity="1"><g transform="translate(540.169595, 384.393417)"><g><path d="M 54.421875 3.203125 C 45.128906 3.203125 36.742188 1.144531 29.265625 -2.96875 C 21.796875 -7.082031 15.847656 -12.796875 11.421875 -20.109375 C 7.003906 -27.429688 4.796875 -35.742188 4.796875 -45.046875 C 4.796875 -52.515625 6.207031 -59.566406 9.03125 -66.203125 C 11.851562 -72.835938 15.738281 -78.671875 20.6875 -83.703125 C 25.644531 -88.734375 31.441406 -92.695312 38.078125 -95.59375 C 44.710938 -98.488281 51.835938 -99.9375 59.453125 -99.9375 C 69.054688 -99.9375 77.707031 -97.722656 85.40625 -93.296875 C 93.113281 -88.878906 99.253906 -83.007812 103.828125 -75.6875 C 108.398438 -68.375 110.6875 -60.375 110.6875 -51.6875 C 110.6875 -41.769531 108.585938 -32.617188 104.390625 -24.234375 C 100.203125 -15.847656 93.953125 -9.175781 85.640625 -4.21875 C 77.335938 0.726562 66.929688 3.203125 54.421875 3.203125 Z M 58.765625 -7.546875 C 61.515625 -7.546875 63.878906 -8.117188 65.859375 -9.265625 C 67.835938 -10.410156 69.515625 -12.046875 70.890625 -14.171875 C 72.722656 -17.222656 74.019531 -21.414062 74.78125 -26.75 C 75.539062 -32.09375 75.921875 -38.570312 75.921875 -46.1875 C 75.921875 -54.726562 75.082031 -62.203125 73.40625 -68.609375 C 71.726562 -75.015625 69.398438 -80.046875 66.421875 -83.703125 C 63.453125 -87.359375 59.988281 -89.1875 56.03125 -89.1875 C 54.050781 -89.1875 52.222656 -88.84375 50.546875 -88.15625 C 48.867188 -87.46875 47.414062 -86.515625 46.1875 -85.296875 C 43.601562 -82.554688 41.8125 -78.328125 40.8125 -72.609375 C 39.820312 -66.890625 39.328125 -59.609375 39.328125 -50.765625 C 39.328125 -43.597656 40.164062 -36.695312 41.84375 -30.0625 C 43.519531 -23.4375 45.84375 -18.023438 48.8125 -13.828125 C 51.789062 -9.640625 55.109375 -7.546875 58.765625 -7.546875 Z M 58.765625 -7.546875 "/></g></g></g><g fill="#ffffff" fill-opacity="1"><g transform="translate(239.15224, 520.444318)"><g><path d="M 8 58.765625 C 6.9375 58.765625 5.910156 58.457031 4.921875 57.84375 C 3.929688 57.238281 3.4375 56.40625 3.4375 55.34375 C 3.4375 54.125 3.929688 53.128906 4.921875 52.359375 C 5.910156 51.597656 7.164062 50.992188 8.6875 50.546875 C 12.195312 49.472656 14.484375 48.363281 15.546875 47.21875 C 16.617188 46.082031 17.15625 44.289062 17.15625 41.84375 L 17.15625 -66.3125 C 17.15625 -68.300781 16.769531 -70.171875 16 -71.921875 C 15.238281 -73.671875 14.171875 -75.15625 12.796875 -76.375 C 11.429688 -77.601562 9.757812 -78.367188 7.78125 -78.671875 C 6.863281 -78.972656 6.132812 -79.390625 5.59375 -79.921875 C 5.0625 -80.460938 4.796875 -81.492188 4.796875 -83.015625 C 4.796875 -84.390625 5.0625 -85.378906 5.59375 -85.984375 C 6.132812 -86.597656 6.785156 -86.976562 7.546875 -87.125 C 12.734375 -88.34375 18.601562 -89.984375 25.15625 -92.046875 C 31.707031 -94.109375 37.269531 -96.28125 41.84375 -98.5625 C 42.613281 -98.863281 43.414062 -99.28125 44.25 -99.8125 C 45.09375 -100.351562 45.816406 -100.625 46.421875 -100.625 C 47.492188 -100.625 48.140625 -100.316406 48.359375 -99.703125 C 48.585938 -99.097656 48.703125 -98.414062 48.703125 -97.65625 C 48.703125 -96.425781 48.507812 -94.441406 48.125 -91.703125 C 47.75 -88.960938 47.5625 -86.523438 47.5625 -84.390625 C 47.5625 -82.859375 47.71875 -81.941406 48.03125 -81.640625 C 49.550781 -83.160156 52.253906 -85.21875 56.140625 -87.8125 C 60.023438 -90.40625 64.484375 -92.726562 69.515625 -94.78125 C 74.546875 -96.84375 79.425781 -97.875 84.15625 -97.875 C 92.382812 -97.875 99.394531 -95.660156 105.1875 -91.234375 C 110.988281 -86.816406 115.410156 -81.175781 118.453125 -74.3125 C 121.503906 -67.457031 123.03125 -60.296875 123.03125 -52.828125 C 123.03125 -45.660156 121.65625 -38.679688 118.90625 -31.890625 C 116.164062 -25.109375 112.359375 -18.972656 107.484375 -13.484375 C 102.609375 -8.003906 96.96875 -3.660156 90.5625 -0.453125 C 84.15625 2.742188 77.21875 4.34375 69.75 4.34375 C 68.226562 4.34375 66.359375 4.148438 64.140625 3.765625 C 61.929688 3.390625 59.679688 2.859375 57.390625 2.171875 C 55.109375 1.484375 52.976562 0.757812 51 0 C 50.84375 0 50.6875 0.0703125 50.53125 0.21875 C 50.382812 0.375 50.269531 0.640625 50.1875 1.015625 C 50.113281 1.398438 50.078125 1.898438 50.078125 2.515625 L 50.078125 39.328125 C 50.078125 41.460938 50.492188 43.21875 51.328125 44.59375 C 52.171875 45.96875 53.46875 47.109375 55.21875 48.015625 C 56.976562 48.929688 59.226562 49.847656 61.96875 50.765625 C 63.644531 51.222656 64.898438 51.796875 65.734375 52.484375 C 66.578125 53.171875 67 54.125 67 55.34375 C 67 56.257812 66.65625 57.054688 65.96875 57.734375 C 65.289062 58.421875 64.414062 58.765625 63.34375 58.765625 C 58.769531 58.765625 53.773438 58.570312 48.359375 58.1875 C 42.953125 57.8125 38.265625 57.625 34.296875 57.625 C 31.710938 57.625 28.96875 57.703125 26.0625 57.859375 C 23.164062 58.015625 20.191406 58.203125 17.140625 58.421875 C 14.097656 58.648438 11.050781 58.765625 8 58.765625 Z M 68.15625 -7.09375 C 69.675781 -7.09375 71.539062 -7.703125 73.75 -8.921875 C 75.957031 -10.140625 78.128906 -12.195312 80.265625 -15.09375 C 82.398438 -17.988281 84.191406 -21.835938 85.640625 -26.640625 C 87.085938 -31.441406 87.8125 -37.347656 87.8125 -44.359375 C 87.8125 -52.597656 87.050781 -59.15625 85.53125 -64.03125 C 84.007812 -68.90625 82.140625 -72.5625 79.921875 -75 C 77.710938 -77.445312 75.460938 -79.050781 73.171875 -79.8125 C 70.890625 -80.570312 68.910156 -80.953125 67.234375 -80.953125 C 64.640625 -80.953125 62.007812 -80.378906 59.34375 -79.234375 C 56.675781 -78.097656 54.503906 -76.726562 52.828125 -75.125 C 51.148438 -73.519531 50.3125 -72.035156 50.3125 -70.671875 C 50.3125 -69.753906 50.3125 -67.539062 50.3125 -64.03125 C 50.3125 -60.519531 50.269531 -56.515625 50.1875 -52.015625 C 50.113281 -47.523438 50.078125 -43.410156 50.078125 -39.671875 C 50.078125 -35.941406 50.078125 -33.46875 50.078125 -32.25 C 50.078125 -29.195312 50.722656 -25.6875 52.015625 -21.71875 C 53.316406 -17.757812 55.300781 -14.332031 57.96875 -11.4375 C 60.632812 -8.539062 64.03125 -7.09375 68.15625 -7.09375 Z M 68.15625 -7.09375 "/></g></g></g><g fill="#ffffff" fill-opacity="1"><g transform="translate(389.85209, 520.444318)"><g><path d="M 8 0.6875 C 6.476562 0.6875 5.335938 0.382812 4.578125 -0.21875 C 3.816406 -0.832031 3.4375 -1.675781 3.4375 -2.75 C 3.4375 -3.96875 3.890625 -4.914062 4.796875 -5.59375 C 5.710938 -6.28125 7.007812 -6.929688 8.6875 -7.546875 C 10.976562 -8.304688 12.960938 -9.101562 14.640625 -9.9375 C 16.316406 -10.78125 17.15625 -12.878906 17.15625 -16.234375 L 17.15625 -124.859375 C 17.15625 -128.972656 16.65625 -132.554688 15.65625 -135.609375 C 14.664062 -138.660156 12.269531 -140.566406 8.46875 -141.328125 C 6.789062 -141.628906 5.953125 -142.847656 5.953125 -144.984375 C 5.953125 -146.960938 6.710938 -148.109375 8.234375 -148.421875 C 12.046875 -149.179688 16.425781 -150.359375 21.375 -151.953125 C 26.332031 -153.554688 31.0625 -155.195312 35.5625 -156.875 C 40.0625 -158.550781 43.453125 -159.769531 45.734375 -160.53125 C 47.109375 -160.988281 48.175781 -161.21875 48.9375 -161.21875 C 50.007812 -161.21875 50.695312 -160.910156 51 -160.296875 C 51.300781 -159.691406 51.453125 -159.007812 51.453125 -158.25 C 51.453125 -157.1875 51.300781 -155.394531 51 -152.875 C 50.695312 -150.363281 50.46875 -148.039062 50.3125 -145.90625 L 50.3125 -16.6875 C 50.3125 -13.332031 51.148438 -11.234375 52.828125 -10.390625 C 54.503906 -9.554688 56.484375 -8.757812 58.765625 -8 C 60.441406 -7.394531 61.738281 -6.75 62.65625 -6.0625 C 63.570312 -5.375 64.03125 -4.421875 64.03125 -3.203125 C 64.03125 -2.128906 63.648438 -1.285156 62.890625 -0.671875 C 62.128906 -0.0664062 60.984375 0.234375 59.453125 0.234375 C 56.410156 0.234375 53.363281 0.15625 50.3125 0 C 47.257812 -0.15625 44.285156 -0.269531 41.390625 -0.34375 C 38.492188 -0.414062 35.675781 -0.453125 32.9375 -0.453125 C 30.34375 -0.453125 27.710938 -0.375 25.046875 -0.21875 C 22.378906 -0.0703125 19.632812 0.113281 16.8125 0.34375 C 13.988281 0.570312 11.050781 0.6875 8 0.6875 Z M 8 0.6875 "/></g></g></g><g fill="#ffffff" fill-opacity="1"><g transform="translate(483.839418, 520.444318)"><g/></g></g><g fill="#ffffff" fill-opacity="1"><g transform="translate(566.392783, 520.444318)"><g><path d="M 20.578125 64.71875 C 16.304688 64.71875 12.226562 63.191406 8.34375 60.140625 C 4.457031 57.097656 2.515625 53.441406 2.515625 49.171875 C 2.515625 46.117188 3.273438 43.101562 4.796875 40.125 C 6.328125 37.15625 8.769531 35.671875 12.125 35.671875 C 14.71875 35.671875 17.382812 36.128906 20.125 37.046875 C 22.863281 37.960938 25.457031 38.34375 27.90625 38.1875 C 30.488281 37.882812 32.273438 37.238281 33.265625 36.25 C 34.265625 35.257812 35.445312 33.46875 36.8125 30.875 C 37.726562 29.351562 38.566406 27.976562 39.328125 26.75 C 40.097656 25.53125 41.015625 23.851562 42.078125 21.71875 C 43.140625 19.59375 44.585938 16.546875 46.421875 12.578125 C 48.554688 7.847656 49.625 3.734375 49.625 0.234375 C 49.625 -2.210938 49.242188 -4.460938 48.484375 -6.515625 C 47.722656 -8.578125 46.882812 -10.597656 45.96875 -12.578125 L 17.609375 -75.921875 C 16.085938 -79.429688 14.488281 -82.363281 12.8125 -84.71875 C 11.132812 -87.082031 8.847656 -88.800781 5.953125 -89.875 C 4.421875 -90.476562 3.347656 -91.125 2.734375 -91.8125 C 2.128906 -92.5 1.828125 -93.53125 1.828125 -94.90625 C 1.828125 -96.125 2.515625 -96.882812 3.890625 -97.1875 C 5.265625 -97.5 6.484375 -97.65625 7.546875 -97.65625 C 11.359375 -97.65625 14.632812 -97.578125 17.375 -97.421875 C 20.125 -97.265625 22.566406 -97.109375 24.703125 -96.953125 C 26.835938 -96.804688 28.894531 -96.734375 30.875 -96.734375 C 34.226562 -96.734375 37.160156 -96.804688 39.671875 -96.953125 C 42.191406 -97.109375 44.859375 -97.265625 47.671875 -97.421875 C 50.492188 -97.578125 53.738281 -97.65625 57.40625 -97.65625 C 58.46875 -97.65625 59.644531 -97.425781 60.9375 -96.96875 C 62.238281 -96.507812 62.890625 -95.671875 62.890625 -94.453125 C 62.890625 -93.078125 62.351562 -92.160156 61.28125 -91.703125 C 60.21875 -91.242188 59.078125 -90.710938 57.859375 -90.109375 C 56.179688 -89.492188 54.847656 -88.535156 53.859375 -87.234375 C 52.867188 -85.941406 52.375 -83.925781 52.375 -81.1875 C 52.375 -79.8125 52.5625 -78.242188 52.9375 -76.484375 C 53.320312 -74.734375 54.046875 -72.488281 55.109375 -69.75 L 68.375 -37.5 C 68.53125 -37.195312 68.679688 -37.046875 68.828125 -37.046875 C 68.984375 -37.046875 69.140625 -37.195312 69.296875 -37.5 L 80.265625 -71.125 C 80.722656 -72.34375 81.101562 -73.828125 81.40625 -75.578125 C 81.71875 -77.335938 81.875 -78.898438 81.875 -80.265625 C 81.875 -82.859375 81.035156 -84.992188 79.359375 -86.671875 C 77.679688 -88.347656 76.003906 -89.492188 74.328125 -90.109375 C 73.109375 -90.554688 71.960938 -91.046875 70.890625 -91.578125 C 69.828125 -92.117188 69.296875 -93.078125 69.296875 -94.453125 C 69.296875 -95.671875 69.941406 -96.507812 71.234375 -96.96875 C 72.535156 -97.425781 73.71875 -97.65625 74.78125 -97.65625 C 79.351562 -97.5 82.78125 -97.304688 85.0625 -97.078125 C 87.351562 -96.847656 89.488281 -96.734375 91.46875 -96.734375 C 92.6875 -96.734375 93.984375 -96.769531 95.359375 -96.84375 C 96.734375 -96.925781 98.410156 -97.039062 100.390625 -97.1875 C 102.367188 -97.34375 104.8125 -97.5 107.71875 -97.65625 C 108.78125 -97.65625 109.992188 -97.5 111.359375 -97.1875 C 112.734375 -96.882812 113.421875 -96.125 113.421875 -94.90625 C 113.421875 -93.53125 113.113281 -92.5 112.5 -91.8125 C 111.894531 -91.125 110.832031 -90.476562 109.3125 -89.875 C 106.414062 -88.800781 103.859375 -87.082031 101.640625 -84.71875 C 99.429688 -82.363281 97.566406 -79.429688 96.046875 -75.921875 L 61.28125 7.78125 C 59.757812 11.4375 58.234375 15.054688 56.703125 18.640625 C 55.179688 22.222656 53.695312 25.765625 52.25 29.265625 C 50.800781 32.773438 49.316406 36.28125 47.796875 39.78125 C 46.273438 43.289062 44.75 46.800781 43.21875 50.3125 C 41.238281 55.039062 38.226562 58.625 34.1875 61.0625 C 30.144531 63.5 25.609375 64.71875 20.578125 64.71875 Z M 20.578125 64.71875 "/></g></g></g><g clip-path="url(#612b58bb7b)"><path fill="#e8ab34" d="M 480.863281 402.621094 L 480.863281 527.757812 L 579.183594 465.1875 Z M 480.863281 402.621094 " fill-opacity="1" fill-rule="nonzero"/></g></svg>